<?xml version="1.0" standalone="no"?>
<!DOCTYPE svg PUBLIC "-//W3C//DTD SVG 20010904//EN"
 "http://www.w3.org/TR/2001/REC-SVG-20010904/DTD/svg10.dtd">
<svg version="1.0" xmlns="http://www.w3.org/2000/svg"
 width="1280.000000pt" height="1280.000000pt" viewBox="0 0 1280.000000 1280.000000"
 preserveAspectRatio="xMidYMid meet">
<metadata>
Created by potrace 1.15, written by Peter Selinger 2001-2017
</metadata>
<g transform="translate(0.000000,1280.000000) scale(0.100000,-0.100000)"
fill="#ffffff" stroke="none">
<path d="M4712 12380 c-166 -44 -312 -156 -427 -329 -200 -301 -320 -748 -376
-1411 -15 -164 -18 -858 -6 -1106 l8 -162 -98 23 c-364 86 -812 158 -1223 196
-204 19 -675 16 -835 -5 -174 -23 -341 -61 -449 -102 l-89 -33 -33 28 c-103
91 -263 58 -326 -68 -33 -65 -35 -119 -7 -180 l20 -45 -35 -65 c-55 -106 -70
-170 -69 -301 0 -89 6 -137 26 -212 87 -330 327 -695 737 -1122 69 -71 100
-111 91 -114 -7 -2 -91 -44 -185 -92 -841 -427 -1234 -890 -1131 -1329 148
-627 1372 -1106 3203 -1253 31 -3 37 -10 79 -89 l46 -86 -42 -189 c-90 -409
-151 -763 -190 -1109 -19 -163 -41 -456 -41 -545 0 -34 -3 -37 -42 -47 -67
-18 -110 -52 -141 -113 -33 -65 -34 -132 0 -196 26 -50 94 -102 144 -110 22
-4 41 -9 43 -13 2 -3 9 -60 16 -126 31 -316 113 -588 234 -769 136 -204 317
-306 542 -306 288 0 611 157 1009 488 194 162 613 604 803 846 12 16 24 27 25
25 2 -2 32 -51 67 -109 252 -416 493 -734 764 -1006 231 -230 406 -358 596
-433 280 -110 534 -65 731 129 401 396 581 1346 513 2698 l-7 133 29 -6 c16
-4 45 -11 64 -16 164 -40 528 -107 779 -144 339 -49 484 -59 851 -60 363 0
457 8 675 56 662 147 896 559 646 1138 -115 267 -340 579 -661 914 -62 65
-111 119 -109 120 2 1 83 42 180 90 246 122 436 237 625 378 l41 30 37 -25
c93 -63 228 -33 293 65 41 62 45 150 8 217 l-27 50 52 77 c96 142 134 256 133
405 0 108 -18 180 -68 281 -234 465 -1094 836 -2374 1024 -198 29 -562 71
-710 81 l-101 7 -44 83 -44 83 38 169 c239 1049 301 1956 175 2562 -102 493
-347 776 -690 797 -293 18 -634 -139 -1045 -481 -200 -167 -546 -526 -743
-773 -45 -56 -85 -102 -89 -102 -3 -1 -18 20 -34 47 -54 93 -200 319 -269 417
-39 55 -74 106 -79 113 -4 7 2 32 15 58 78 163 -62 343 -238 306 l-54 -11 -36
42 c-20 23 -94 100 -166 170 -372 367 -720 521 -1005 447z m363 -70 c145 -46
317 -145 471 -271 92 -75 275 -249 315 -301 l32 -39 -32 -32 c-89 -93 -72
-245 37 -322 40 -27 51 -30 122 -30 67 0 83 3 111 24 l32 24 24 -29 c48 -60
246 -361 351 -535 l22 -36 -88 -114 c-174 -227 -352 -482 -607 -871 -9 -14
-20 -14 -95 -2 -324 50 -673 -30 -950 -219 -76 -53 -251 -219 -307 -292 l-31
-40 -68 19 c-38 10 -159 42 -268 71 -159 41 -201 55 -206 71 -19 51 -31 656
-19 949 20 510 81 907 189 1238 143 433 348 685 615 754 77 19 264 11 350 -17z
m3402 -220 c653 -85 868 -1133 572 -2795 -46 -256 -130 -645 -139 -645 -3 0
-16 17 -30 37 -48 71 -215 229 -308 291 -290 193 -668 286 -1087 268 l-150 -7
-69 163 c-168 396 -426 922 -600 1226 l-76 133 97 117 c598 721 1175 1154
1613 1211 89 12 95 12 177 1z m-1861 -1422 c134 -228 362 -677 517 -1019 75
-165 177 -403 177 -412 0 -2 -26 -7 -57 -11 -32 -3 -111 -16 -176 -28 -77 -14
-123 -18 -131 -12 -7 5 -60 47 -117 93 -259 210 -570 377 -839 451 -47 13 -89
27 -94 31 -9 8 185 307 342 529 114 161 326 440 334 440 4 0 24 -28 44 -62z
m-891 -938 c49 -6 91 -13 93 -15 3 -2 -51 -98 -120 -212 -69 -115 -169 -286
-223 -380 -54 -95 -103 -173 -110 -173 -6 0 -98 29 -205 65 -107 36 -278 90
-380 121 -102 30 -198 61 -213 67 l-28 12 67 78 c276 323 692 485 1119 437z
m285 -57 c193 -55 407 -157 606 -288 114 -76 283 -204 284 -216 0 -4 -37 -17
-82 -29 -133 -35 -324 -98 -455 -151 -120 -48 -124 -48 -180 -38 -93 18 -273
5 -376 -25 -49 -14 -109 -37 -135 -49 l-47 -24 -112 40 c-62 22 -113 43 -113
46 0 14 262 466 383 661 22 36 47 75 54 88 16 26 33 25 173 -15z m-3585 -103
c332 -17 607 -49 970 -115 206 -37 504 -101 513 -110 3 -3 11 -78 19 -167 20
-247 50 -516 89 -797 19 -139 34 -254 32 -255 -2 -2 -91 -22 -198 -45 -794
-172 -1577 -417 -2132 -665 l-57 -25 -120 127 c-624 663 -844 1194 -655 1585
10 20 21 37 25 37 4 0 26 -9 50 -20 139 -63 298 39 299 192 0 26 -4 58 -10 73
-9 24 -7 27 35 45 166 71 433 123 710 139 204 12 211 12 430 1z m1688 -271
c173 -43 340 -89 345 -94 2 -2 -25 -50 -59 -107 -147 -242 -262 -564 -310
-865 -7 -46 -14 -81 -17 -79 -13 14 -93 669 -117 965 -16 196 -17 221 -10 221
3 0 79 -18 168 -41z m3731 -114 c432 -57 797 -253 1000 -538 44 -62 48 -71 42
-110 -11 -74 1 -71 -232 -58 -115 7 -394 15 -620 18 l-412 6 -47 126 c-26 69
-85 222 -131 339 -46 118 -84 218 -84 223 0 15 357 11 484 -6z m-3119 -55
c162 -49 626 -199 633 -206 3 -2 -171 -336 -183 -352 -1 -1 -40 7 -86 18 -103
24 -275 27 -378 5 -220 -46 -436 -188 -554 -365 -20 -30 -37 -52 -37 -48 0 3
9 50 20 104 59 289 161 558 291 771 63 102 90 134 108 129 9 -3 93 -28 186
-56z m2626 18 c9 -24 60 -155 114 -293 53 -137 106 -274 116 -302 17 -52 17
-53 -1 -53 -12 0 -53 45 -117 127 -120 154 -236 286 -366 414 -54 54 -94 99
-90 102 17 10 229 43 293 46 33 1 36 -2 51 -41z m-252 -165 c143 -144 236
-250 355 -403 70 -91 61 -99 -53 -47 -117 54 -181 68 -331 74 -101 4 -154 1
-210 -11 l-75 -16 -24 33 c-85 113 -233 225 -373 282 l-80 33 104 40 c174 67
476 160 527 162 8 0 80 -66 160 -147z m-1608 -104 c46 -17 87 -34 92 -38 4 -4
-17 -24 -46 -44 -63 -44 -182 -164 -222 -224 -15 -24 -31 -43 -36 -43 -5 0
-26 7 -48 16 l-39 15 50 92 c27 51 70 129 94 175 25 45 51 82 58 82 7 0 50
-14 97 -31z m3459 -406 c0 -13 -41 -18 -52 -7 -3 3 -1 21 5 40 l10 34 19 -27
c10 -16 18 -34 18 -40z m-1331 -25 c15 -42 8 -46 -18 -10 -25 35 -26 42 -7 42
8 0 19 -14 25 -32z m1016 11 c116 -6 214 -15 218 -19 18 -16 -252 -960 -275
-960 -4 0 -74 38 -156 83 -81 46 -214 120 -295 163 l-148 79 -39 72 c-22 39
-53 109 -70 154 -35 97 -91 195 -149 260 -32 37 -91 158 -91 187 0 8 774 -6
1005 -19z m368 -99 c32 -81 81 -264 92 -346 l6 -51 -48 -24 c-28 -15 -60 -42
-78 -68 -27 -39 -30 -50 -30 -121 0 -71 3 -82 30 -122 18 -25 50 -53 78 -68
l47 -25 -6 -45 c-7 -52 -52 -282 -56 -285 -2 -2 -100 56 -219 127 l-216 130
39 122 c49 153 199 675 224 779 l19 78 44 -3 44 -3 30 -75z m327 44 c728 -73
1430 -225 1915 -415 154 -61 404 -186 510 -257 251 -168 400 -350 451 -552 21
-83 14 -219 -16 -310 -23 -68 -87 -198 -118 -238 -17 -22 -19 -22 -56 -7 -54
23 -135 21 -184 -4 -105 -54 -150 -188 -97 -291 13 -25 12 -29 -13 -52 -95
-88 -398 -276 -648 -403 l-167 -84 -66 60 c-376 342 -630 548 -1035 838 -218
155 -531 365 -688 460 -21 12 -38 28 -38 34 0 7 11 64 24 127 13 63 27 138 31
166 l6 51 54 12 c95 21 175 117 175 209 0 43 -22 100 -52 137 -31 37 -94 75
-125 75 -35 0 -44 17 -58 111 -17 105 -54 242 -85 314 l-20 47 77 -6 c43 -4
143 -14 223 -22z m-5270 -324 c0 -11 -12 -59 -26 -107 -35 -116 -44 -313 -20
-418 9 -38 23 -145 32 -237 l15 -167 -43 -63 c-23 -35 -77 -119 -119 -188 -50
-81 -82 -123 -90 -121 -8 3 -39 7 -70 9 -105 7 -191 -58 -218 -165 -19 -73 0
-134 61 -197 l48 -50 -26 -66 c-15 -36 -46 -122 -69 -192 l-41 -128 -175 113
c-315 204 -620 418 -845 593 -28 21 -80 61 -115 89 -160 124 -428 354 -599
513 l-75 70 85 40 c464 215 1203 451 1950 622 124 28 241 55 260 59 61 15 80
13 80 -9z m4418 -572 c50 -28 92 -56 92 -62 0 -21 -43 -156 -50 -156 -4 0 -16
19 -26 42 -31 70 -87 150 -155 223 l-64 68 55 -32 c30 -17 97 -55 148 -83z
m198 -115 c146 -86 319 -192 338 -206 19 -14 18 -18 -23 -148 -97 -303 -212
-542 -447 -921 -16 -27 -31 -48 -35 -48 -3 0 -11 44 -19 98 -7 53 -21 137 -30
186 l-18 90 34 60 c115 212 143 466 74 687 l-18 58 31 96 c17 52 32 95 33 95
1 0 37 -21 80 -47z m-6731 -299 c388 -340 891 -711 1438 -1059 77 -49 106 -73
103 -84 -16 -51 -47 -213 -61 -316 -13 -93 -16 -166 -12 -325 6 -227 20 -316
81 -492 29 -85 31 -98 17 -98 -39 0 -431 42 -606 66 -1321 175 -2239 553
-2484 1024 -56 108 -75 179 -75 285 1 389 390 792 1129 1171 l179 92 106 -97
c58 -53 141 -128 185 -167z m2168 191 c16 -34 16 -37 0 -62 -19 -29 -20 -28
-25 50 -2 26 -1 47 3 47 3 0 13 -16 22 -35z m85 -127 c24 -28 45 -61 47 -72 3
-12 18 -78 35 -147 50 -214 52 -194 -24 -268 -36 -36 -67 -63 -69 -60 -8 8
-47 225 -68 374 l-21 152 24 36 c12 20 26 37 29 37 3 0 24 -23 47 -52z m5192
-213 c422 -279 768 -536 1095 -813 134 -114 385 -344 385 -353 0 -9 -349 -154
-545 -227 -274 -101 -605 -206 -935 -296 -347 -94 -865 -214 -876 -203 -3 3 0
63 7 134 16 154 16 567 0 712 l-11 105 38 55 c65 93 180 287 247 415 107 204
180 383 271 664 5 17 12 13 324 -193z m-5305 23 c9 -65 29 -181 45 -259 l27
-142 -43 -70 c-108 -175 -156 -410 -121 -602 12 -70 12 -85 -1 -125 -8 -25
-18 -49 -22 -53 -7 -8 -372 201 -426 244 -14 11 24 146 83 304 l38 100 41 -3
c71 -5 124 15 175 67 82 85 86 191 12 288 l-34 45 32 56 c41 73 171 274 174
270 2 -2 11 -56 20 -120z m269 42 c27 -19 54 -39 62 -45 11 -8 6 -29 -28 -113
-22 -56 -42 -101 -44 -100 -1 2 -16 64 -33 138 -17 74 -33 146 -37 159 -5 22
-4 23 14 10 10 -8 40 -30 66 -49z m163 -97 c34 -16 62 -30 62 -33 0 -5 -192
-100 -196 -97 -3 4 62 157 67 157 3 0 33 -12 67 -27z m3921 -645 c12 -73 24
-162 27 -198 l6 -65 -51 -68 c-29 -38 -53 -67 -56 -65 -3 4 -28 113 -76 335
l-11 53 62 62 c33 34 61 66 61 70 0 4 4 8 9 8 4 0 18 -60 29 -132z m-142 -185
c18 -81 36 -173 39 -203 l6 -55 -101 -120 c-113 -135 -281 -318 -286 -313 -2
2 4 42 12 88 11 61 14 117 10 198 l-6 113 64 152 c36 84 69 164 75 178 8 23
140 123 149 114 2 -2 19 -70 38 -152z m-224 4 c-60 -147 -108 -257 -112 -257
-3 0 -17 37 -31 82 l-26 82 26 44 c20 34 38 48 81 67 79 33 83 32 62 -18z
m423 -375 c7 -150 -3 -502 -13 -472 -3 8 -28 142 -56 297 l-51 282 50 67 50
68 6 -45 c4 -24 10 -113 14 -197z m-4789 123 c96 -58 192 -114 214 -125 42
-22 46 -32 29 -77 -33 -87 -193 -633 -247 -843 l-19 -75 -45 -3 -45 -3 -21 48
c-118 278 -148 651 -81 1013 11 58 22 120 26 138 3 17 8 32 10 32 3 0 83 -47
179 -105z m4683 -210 c58 -308 82 -464 79 -527 l-3 -63 -140 -27 c-282 -54
-726 -129 -733 -123 -2 1 25 25 60 53 96 76 176 178 238 302 20 40 59 93 104
140 94 96 226 245 300 338 32 40 60 71 61 70 2 -2 17 -75 34 -163z m-4347 87
c24 -63 23 -65 -18 -40 -23 13 -33 26 -30 35 4 8 9 26 12 39 8 31 14 25 36
-34z m7040 -150 c250 -273 421 -512 528 -735 75 -156 107 -252 126 -383 32
-214 -18 -383 -155 -528 -158 -166 -419 -271 -801 -323 -167 -22 -672 -25
-875 -5 -400 40 -832 111 -1195 195 l-55 12 -22 249 c-28 316 -58 566 -116
966 -1 10 25 20 103 37 818 176 1547 397 2115 641 l160 69 33 -31 c19 -17 88
-91 154 -164z m-7044 78 c34 -21 61 -49 86 -90 106 -172 308 -322 504 -376 63
-17 64 -18 104 -88 22 -39 62 -107 89 -151 27 -44 64 -122 83 -172 l34 -93
-272 0 c-252 0 -578 10 -843 26 -95 6 -113 10 -113 23 0 28 119 460 185 671
13 41 38 121 55 178 18 56 34 102 36 102 2 0 26 -13 52 -30z m1256 -465 c54
-14 113 -25 131 -25 47 0 95 -11 95 -22 0 -24 68 -168 107 -226 24 -36 42 -66
41 -67 -3 -3 -578 268 -633 297 l-29 16 58 12 c45 9 130 35 131 39 0 1 45 -10
99 -24z m-502 -84 c10 -30 16 -56 14 -58 -4 -4 -66 102 -66 113 0 3 7 4 17 2
9 -2 24 -25 35 -57z m358 -37 c96 -47 257 -124 358 -170 137 -63 197 -96 237
-132 44 -38 51 -48 37 -53 -23 -8 -717 -33 -736 -26 -8 3 -50 59 -93 124 -57
85 -88 143 -110 208 -52 152 -58 135 44 135 l88 0 175 -86z m3310 -54 c0 -24
-62 -304 -84 -375 -72 -240 -192 -495 -302 -641 l-23 -31 -153 44 c-84 25
-276 85 -426 135 l-273 89 19 32 c35 57 168 308 240 454 43 86 78 143 89 147
10 2 81 14 158 26 167 25 698 120 704 126 9 8 51 4 51 -6z m69 -225 c33 -239
59 -475 76 -680 8 -104 18 -213 21 -241 l5 -52 -73 18 c-161 39 -433 112 -440
118 -4 4 13 39 38 77 141 217 250 503 312 817 19 94 29 130 34 115 4 -12 16
-89 27 -172z m-1076 -32 c-98 -192 -198 -381 -234 -445 -37 -63 -40 -66 -67
-59 -32 10 -425 152 -430 156 -2 2 52 36 120 75 68 40 192 120 277 177 127 85
170 109 245 134 50 16 98 33 106 39 30 19 27 9 -17 -77z m-2463 -68 c0 -16
-32 -1 -39 18 -25 65 -23 72 8 30 17 -24 31 -45 31 -48z m2200 60 c0 -7 -290
-192 -394 -251 l-118 -68 -62 21 c-33 12 -81 30 -106 41 l-45 19 66 11 c144
26 284 89 399 181 l59 48 101 0 c55 0 100 -1 100 -2z m-3521 -62 c-1 -10 -4
-31 -8 -48 l-7 -30 -22 42 c-12 23 -22 45 -22 48 0 3 14 5 30 5 22 0 30 -4 29
-17z m476 -13 c127 -5 358 -10 515 -10 l285 0 54 -148 c30 -81 89 -236 133
-346 43 -109 77 -201 74 -203 -12 -12 -272 -14 -386 -4 -320 30 -572 112 -796
260 -107 70 -242 199 -308 293 -50 71 -51 78 -20 167 4 11 25 13 112 7 59 -4
211 -11 337 -16z m1751 -25 c120 -79 271 -127 434 -140 63 -5 114 -17 198 -47
61 -23 112 -44 112 -48 0 -8 -222 -115 -370 -177 -190 -81 -573 -203 -635
-203 -21 0 -263 237 -377 370 -68 80 -200 252 -195 256 1 2 95 6 207 10 113 3
268 10 345 14 77 4 156 8 176 9 27 1 52 -10 105 -44z m-815 -82 c110 -146 239
-294 371 -427 65 -66 118 -121 118 -122 0 -10 -323 -56 -332 -46 -13 14 -268
666 -268 687 0 3 8 5 19 5 11 0 45 -36 92 -97z m-1338 -165 c178 -208 430
-356 737 -433 165 -42 314 -56 544 -53 l208 2 77 -179 c175 -406 409 -885 585
-1194 42 -73 76 -138 76 -143 0 -6 -44 -63 -97 -127 -607 -728 -1169 -1146
-1618 -1203 -153 -19 -285 9 -405 87 -231 150 -373 452 -435 928 -19 143 -21
134 21 147 154 51 194 264 68 368 -22 18 -56 37 -76 43 l-38 10 0 77 c0 91 24
402 46 587 35 301 104 693 186 1059 31 134 32 138 47 115 9 -13 42 -54 74 -91z
m3163 -83 c115 -42 221 -81 236 -88 l28 -12 -103 -180 c-111 -194 -245 -419
-313 -527 l-43 -67 -113 30 c-217 58 -428 157 -648 304 -127 85 -280 202 -280
215 0 3 35 15 78 25 202 47 563 185 797 306 72 36 135 67 141 68 7 0 106 -33
220 -74z m524 -183 c129 -43 317 -103 417 -133 101 -30 183 -57 183 -60 0 -18
-145 -171 -220 -232 -271 -220 -568 -311 -926 -285 -64 4 -122 11 -129 16 -10
5 10 45 78 157 51 83 104 170 118 195 14 25 63 110 109 190 45 80 94 164 107
188 13 23 25 42 26 42 1 0 108 -35 237 -78z m-1712 -238 c287 -231 596 -398
878 -475 44 -12 80 -23 82 -24 5 -5 -187 -296 -313 -476 -90 -128 -339 -464
-365 -492 -4 -5 -22 18 -40 50 -133 234 -188 337 -300 562 -187 374 -409 865
-396 878 3 3 61 13 129 23 68 10 139 23 158 28 19 6 40 11 47 11 8 1 62 -38
120 -85z m2728 -60 l182 -46 6 -51 c13 -118 18 -846 7 -1037 -66 -1094 -343
-1746 -794 -1866 -78 -21 -229 -18 -323 6 -113 29 -300 125 -429 221 -138 103
-416 380 -551 550 -161 201 -419 576 -513 745 l-23 41 81 104 c147 188 599
838 614 883 2 5 36 3 77 -5 120 -22 364 -17 487 9 305 65 581 236 773 477 l50
63 88 -24 c48 -14 169 -45 268 -70z"/>
<path d="M9367 1610 c-138 -25 -201 -230 -116 -378 63 -111 219 -123 313 -24
l28 30 -40 21 -41 21 -25 -25 c-37 -37 -107 -35 -146 3 -52 52 -50 183 2 239
40 43 117 37 157 -11 12 -14 17 -13 52 5 39 19 39 20 23 45 -36 54 -129 88
-207 74z"/>
<path d="M11323 1609 c-57 -10 -89 -33 -120 -86 -32 -54 -43 -168 -23 -237 14
-52 60 -110 103 -133 44 -22 127 -21 168 4 79 45 120 161 100 276 -23 131
-108 197 -228 176z m86 -94 c60 -30 80 -154 39 -235 -19 -37 -30 -47 -60 -54
-80 -20 -128 36 -128 149 0 123 65 184 149 140z"/>
<path d="M9851 1588 c-5 -13 -48 -115 -95 -227 -47 -113 -86 -208 -86 -213 0
-4 20 -8 44 -8 44 0 44 0 67 55 l23 55 98 0 99 0 25 -56 24 -55 43 3 c31 2 41
7 39 18 -2 8 -44 113 -94 233 l-91 217 -44 0 c-36 0 -45 -4 -52 -22z m104
-227 c6 -20 3 -21 -49 -21 -31 0 -56 4 -56 9 0 5 12 38 27 72 l27 61 22 -50
c12 -28 25 -60 29 -71z"/>
<path d="M10212 1378 l3 -233 40 0 40 0 3 88 3 87 58 0 58 0 38 -90 38 -90 43
0 c24 0 44 5 44 10 0 6 -17 51 -37 100 l-37 90 27 28 c51 54 58 125 16 183
-34 48 -74 59 -213 59 l-126 0 2 -232z m262 126 c9 -8 16 -26 16 -39 0 -39
-35 -55 -117 -55 l-73 0 0 55 0 55 79 0 c59 0 84 -4 95 -16z"/>
<path d="M10692 1378 l3 -233 135 0 c155 0 187 11 221 77 26 50 24 88 -6 133
-24 35 -25 39 -10 61 19 29 19 96 0 133 -25 49 -67 61 -214 61 l-131 0 2 -232z
m268 122 c8 -14 8 -26 0 -40 -9 -18 -21 -20 -95 -20 l-85 0 0 40 0 40 85 0
c74 0 86 -2 95 -20z m2 -167 c22 -20 24 -66 2 -87 -12 -12 -36 -16 -100 -16
l-84 0 0 60 0 60 82 0 c62 0 86 -4 100 -17z"/>
<path d="M11660 1376 l0 -236 40 0 39 0 3 152 3 153 108 -153 c104 -147 109
-153 140 -150 l32 3 3 233 2 232 -40 0 -40 0 0 -147 c0 -115 -3 -144 -12 -135
-7 7 -53 72 -104 145 -90 131 -91 132 -133 135 l-41 3 0 -235z"/>
</g>
</svg>
